<svg width="76" height="58" viewBox="0 0 76 58" fill="#87cefa" xmlns="http://www.w3.org/2000/svg">
<path d="M68.0451 57.5046H16.9545C12.996 57.5046 9.77557 54.2841 9.77557 50.3257V48.7197H8.16974C4.21131 48.7197 0.990845 45.4993 0.990845 41.5409V8.10052C0.990845 4.14209 4.21131 0.921631 8.16974 0.921631H59.2605C63.2188 0.921631 66.4393 4.14209 66.4393 8.10052V9.70646H68.0453C72.0036 9.70646 75.2241 12.9269 75.2241 16.8853V50.3257C75.224 54.2841 72.0036 57.5046 68.0451 57.5046ZM8.16974 1.04393C4.27876 1.04393 1.11327 4.20955 1.11327 8.10052V41.541C1.11327 45.4318 4.27876 48.5974 8.16974 48.5974H9.89811V50.3258C9.89811 54.2167 13.0636 57.3823 16.9546 57.3823H68.0451C71.9361 57.3823 75.1017 54.2168 75.1017 50.3258V16.8853C75.1017 12.9944 71.9363 9.82889 68.0453 9.82889H66.3168V8.10052C66.3168 4.20955 63.1515 1.04405 59.2605 1.04405H8.16974V1.04393ZM68.0453 52.26H16.9546C15.888 52.26 15.0203 51.3922 15.0203 50.3257V16.8853C15.0203 15.8188 15.888 14.9511 16.9546 14.9511H68.0453C69.1119 14.9511 69.9795 15.8188 69.9795 16.8853V50.3257C69.9794 51.3922 69.1118 52.26 68.0453 52.26ZM16.9546 15.0735C15.9555 15.0735 15.1427 15.8864 15.1427 16.8853V50.3257C15.1427 51.3248 15.9555 52.1375 16.9546 52.1375H68.0453C69.0443 52.1375 69.8571 51.3248 69.8571 50.3257V16.8853C69.8571 15.8863 69.0443 15.0735 68.0453 15.0735H16.9546ZM9.89811 43.4751H8.16986C7.10331 43.4751 6.23546 42.6074 6.23546 41.5409V8.10052C6.23546 7.03397 7.10319 6.16623 8.16974 6.16623H59.2605C60.327 6.16623 61.1947 7.03397 61.1947 8.10052V9.82889H16.9546C13.0636 9.82889 9.89811 12.9944 9.89811 16.8853V43.4751ZM8.16974 6.28853C7.17065 6.28853 6.35788 7.1013 6.35788 8.10039V41.5409C6.35788 42.5398 7.17077 43.3527 8.16986 43.3527H9.77581V16.8853C9.77581 12.9269 12.9963 9.70646 16.9547 9.70646H61.0724V8.10052C61.0724 7.10142 60.2596 6.28866 59.2606 6.28866H8.16974V6.28853Z" fill="#000000"/>
</svg>
